P1
10 10
0000000000
0111111110
0100010010
0100010010
0100110010
0100000010
0100010010
0100000010
0111111110
0000000000
