P1
10 12
0000000000
0000000000
0011110000
0000000000
0000000000
0000000000
0000000000
0000000000
0010000000
0010000000
0010000000
0000000000
